
<svg xmlns="http://www.w3.org/2000/svg" width="75" height="58" viewBox="0 0 75 58" fill="none">
    <path d="M74.6177 0H0.617676V58H74.6177V0Z" fill="#1F4E79"/>
    <path d="M22.5867 33.5843H27.4845V39.4398C26.9586 39.8777 26.3293 40.1944 25.5979 40.3986C24.8671 40.5956 24.1426 40.6963 23.4315 40.6963C22.592 40.6963 21.8121 40.5655 21.0968 40.3041C20.3752 40.0399 19.7519 39.6321 19.2276 39.0756C18.7033 38.5188 18.2895 37.8077 17.9898 36.9442C17.6892 36.0807 17.5404 35.0561 17.5404 33.8671C17.5404 32.6296 17.7182 31.5743 18.074 30.7045C18.4316 29.8351 18.8995 29.1294 19.4813 28.586C20.0624 28.0416 20.7162 27.646 21.4442 27.4031C22.1666 27.1602 22.9056 27.0381 23.657 27.0381C24.4076 27.0381 25.0657 27.0929 25.6357 27.205C26.2048 27.3174 26.6577 27.4361 26.9969 27.5611L26.4702 29.7228C26.1573 29.5949 25.8081 29.4978 25.4204 29.4284C25.0335 29.3612 24.5377 29.3245 23.9374 29.3245C23.4014 29.3245 22.9059 29.4068 22.4551 29.5709C22.0057 29.7349 21.6143 29.9995 21.2835 30.3677C20.9507 30.7377 20.693 31.2093 20.5142 31.7843C20.3335 32.3624 20.2417 33.0618 20.2417 33.8855C20.2417 34.6763 20.3298 35.3538 20.5049 35.9225C20.6801 36.4914 20.9233 36.9595 21.2363 37.3301C21.5481 37.6986 21.9139 37.9723 22.334 38.1453C22.7521 38.3221 23.1989 38.4102 23.6736 38.4102C23.9999 38.4102 24.3193 38.3677 24.6313 38.2854C24.9452 38.2031 25.2079 38.0847 25.4204 37.9204V35.4453L22.5867 35.1439V33.5843Z" fill="white"/>
    <path d="M56.6254 40.4349H48.3112V27.2988H50.8822V38.1447H56.6254V40.4349Z" fill="white"/>
    <path d="M38.6517 40.7136C37.7953 40.7136 36.9919 40.5765 36.2581 40.3125C35.5304 40.045 34.8901 39.6251 34.3599 39.0623C33.8277 38.4973 33.4017 37.7646 33.0963 36.8856C32.789 36.0009 32.6342 34.9367 32.6342 33.7174C32.6342 32.4464 32.8162 31.3521 33.1799 30.4664C33.5434 29.5792 34.0287 28.8491 34.6168 28.2992C35.2081 27.7456 35.8818 27.341 36.616 27.092C37.3577 26.8425 38.1207 26.7178 38.8856 26.7178C39.6563 26.7178 40.3433 26.7755 40.927 26.8911C41.449 26.9944 41.8865 27.1039 42.2162 27.2197L41.7333 29.2168C41.435 29.1079 41.1035 29.0224 40.7511 28.9588C40.3378 28.8855 39.8098 28.8489 39.1805 28.8489C38.6071 28.8489 38.0722 28.9372 37.5887 29.1105C37.1005 29.287 36.672 29.5787 36.3133 29.9774C35.9575 30.3752 35.6763 30.8895 35.4827 31.503C35.2902 32.1143 35.1955 32.8621 35.1955 33.7348C35.1955 34.5677 35.2886 35.2946 35.474 35.8973C35.6615 36.505 35.9261 37.0156 36.2631 37.4117C36.601 37.8095 37.0022 38.1075 37.4561 38.2987C37.9066 38.4878 38.394 38.5817 38.907 38.5817C39.2533 38.5817 39.6017 38.5395 39.9364 38.4509C40.2779 38.3623 40.5696 38.2257 40.806 38.0468V35.4239L37.9002 35.1111V33.5497H42.7514V39.4692C42.2278 39.8923 41.5988 40.2046 40.8782 40.4061C40.1292 40.6105 39.3793 40.7136 38.6517 40.7136Z" fill="white"/>
    <path d="M30.9439 21.2517C30.764 21.2638 30.5875 21.2791 30.41 21.291V21.5463C30.6746 21.5284 30.9394 21.5036 31.2047 21.4859V12.1787H30.9441L30.9439 21.2517Z" fill="white"/>
    <path d="M29.6406 21.3519C29.4613 21.3672 29.2835 21.3793 29.1076 21.3946V21.647C29.3716 21.6257 29.6377 21.6077 29.9041 21.5861V12.1787H29.6409L29.6406 21.3519Z" fill="white"/>
    <path d="M45.9939 21.4155C45.8162 21.3975 45.64 21.3854 45.4617 21.3733V21.5861C45.7265 21.6077 45.9929 21.6259 46.2585 21.6473V12.1787H45.9937L45.9939 21.4155Z" fill="white"/>
    <path d="M44.6914 21.3116C44.5152 21.2998 44.3374 21.2842 44.1583 21.2723V21.4852C44.4258 21.5034 44.69 21.5276 44.9551 21.5458V12.1777H44.6914V21.3116Z" fill="white"/>
    <path d="M29.6406 44.2423H29.1076V44.4765H29.9041V24.1562C29.8158 24.1652 29.7295 24.171 29.6409 24.1803L29.6406 44.2423Z" fill="white"/>
    <path d="M45.9939 44.2421H45.4617V44.4764H46.2585V24.2257C46.1704 24.2165 46.0841 24.2104 45.9937 24.2012L45.9939 44.2421Z" fill="white"/>
    <path d="M62.6855 26.1468L62.4352 26.8125C54.9202 24.0426 46.3088 22.5867 37.5331 22.6047C28.7864 22.6229 20.2116 24.1004 12.7283 26.88L12.7879 27.0438C20.2968 24.2584 28.9051 22.7872 37.6837 22.7872C46.4612 22.7872 55.0679 24.2584 62.5766 27.0438L62.8883 26.2199C62.8211 26.1956 62.7541 26.1716 62.6855 26.1468Z" fill="white"/>
    <path d="M44.6914 44.2425H44.1583V44.4767H44.9551V24.1166C44.8665 24.1105 44.7789 24.1044 44.6914 24.0986V44.2425Z" fill="white"/>
    <path d="M30.9439 44.2412H30.41V44.4755H31.2047V24.0547C31.1193 24.0602 31.0301 24.0695 30.9441 24.0758L30.9439 44.2412Z" fill="white"/>
  </svg>